<svg width="42px" height="42px" viewBox="0 0 42 42" version="1.1" xmlns="http://www.w3.org/2000/svg" xmlns:xlink="http://www.w3.org/1999/xlink">
    <!-- Generator: Sketch 61.2 (89653) - https://sketch.com -->
    <title>Instagram-outline</title>
    <desc>Created with Sketch.</desc>
    <defs>
        <polygon id="path-1" points="0 0.00567857143 17.9943214 0.00567857143 17.9943214 17.9978571 0 17.9978571">
        </polygon>
    </defs>
    <g id="Design" stroke="none" stroke-width="1" fill="none" fill-rule="evenodd">
        <g id="Artboard" transform="translate(-41.000000, -288.000000)">
            <g id="Instagram-outline" transform="translate(42.000000, 289.000000)">
                <circle id="Oval-Copy-11" stroke="#000000" cx="20" cy="20" r="20">
                </circle>
                <g id="Group" transform="translate(11.000000, 11.000000)">
                    <g id="Group-3">
                        <mask id="mask-2" fill="white">
                            <use xlink:href="#path-1"></use>
                        </mask>
                        <g id="Clip-2"></g>
                        <path d="M9.00001786,0 C6.55574675,0 6.24925721,0.0103571429 5.28931151,0.0541428571 C4.33136644,0.0978214286 3.67712433,0.249928571 3.10465802,0.472357143 C2.51282845,0.70225 2.01092011,1.00989286 1.51054797,1.51007143 C1.01021155,2.01028571 0.702471613,2.51203571 0.472506207,3.10367857 C0.250007443,3.67596429 0.0978522986,4.33 0.0541599433,5.28764286 C0.0103604113,6.24728571 0,6.55367857 0,8.99717857 C0,11.4406429 0.0103604113,11.7470357 0.0541599433,12.7066786 C0.0978522986,13.6643214 0.250007443,14.3183571 0.472506207,14.8906429 C0.702471613,15.4822857 1.01021155,15.9840357 1.51054797,16.48425 C2.01092011,16.9844286 2.51282845,17.2920714 3.10465802,17.522 C3.67712433,17.7443929 4.33136644,17.8965 5.28931151,17.9401786 C6.24925721,17.9839643 6.55574675,17.9943214 9.00001786,17.9943214 C11.4442532,17.9943214 11.7507428,17.9839643 12.7106885,17.9401786 C13.6686336,17.8965 14.3228757,17.7443929 14.895342,17.522 C15.4871715,17.2920714 15.9890799,16.9844286 16.489452,16.48425 C16.9897884,15.9840357 17.2975284,15.4822857 17.5275295,14.8906429 C17.7499926,14.3183571 17.9021477,13.6643214 17.9458401,12.7066786 C17.9896396,11.7470357 18,11.4406429 18,8.99717857 C18,6.55367857 17.9896396,6.24728571 17.9458401,5.28764286 C17.9021477,4.33 17.7499926,3.67596429 17.5275295,3.10367857 C17.2975284,2.51203571 16.9897884,2.01028571 16.489452,1.51007143 C15.9890799,1.00989286 15.4871715,0.70225 14.895342,0.472357143 C14.3228757,0.249928571 13.6686336,0.0978214286 12.7106885,0.0541428571 C11.7507428,0.0103571429 11.4442532,0 9.00001786,0 Z M9.00001786,1.62110714 C11.4030974,1.62110714 11.6877586,1.63028571 12.6367723,1.67357143 C13.5142634,1.71357143 13.9908066,1.86014286 14.3079424,1.98335714 C14.7280392,2.14657143 15.0278481,2.34153571 15.3427688,2.65639286 C15.6577254,2.97121429 15.8527512,3.27092857 16.016017,3.69089286 C16.1392701,4.00792857 16.2858878,4.48432143 16.3259004,5.36153571 C16.3691998,6.31025 16.3783813,6.59482143 16.3783813,8.99717857 C16.3783813,11.3995 16.3691998,11.6840714 16.3259004,12.6327857 C16.2858878,13.51 16.1392701,13.9863929 16.016017,14.3034286 C15.8527512,14.7233929 15.6577254,15.0231071 15.3427688,15.3379286 C15.0278481,15.6527857 14.7280392,15.84775 14.3079424,16.0109643 C13.9908066,16.1341786 13.5142634,16.28075 12.6367723,16.32075 C11.6879015,16.3640357 11.403276,16.3732143 9.00001786,16.3732143 C6.59672397,16.3732143 6.31213419,16.3640357 5.36322768,16.32075 C4.48573657,16.28075 4.00919338,16.1341786 3.69205761,16.0109643 C3.2719608,15.84775 2.97215193,15.6527857 2.65723115,15.3379286 C2.34231037,15.0231071 2.14724883,14.7233929 1.98398304,14.3034286 C1.86072987,13.9863929 1.71411219,13.51 1.67409957,12.6327857 C1.63080019,11.6840714 1.62161872,11.3995 1.62161872,8.99717857 C1.62161872,6.59482143 1.63080019,6.31025 1.67409957,5.36153571 C1.71411219,4.48432143 1.86072987,4.00792857 1.98398304,3.69089286 C2.14724883,3.27092857 2.34227465,2.97121429 2.65723115,2.65639286 C2.97215193,2.34153571 3.2719608,2.14657143 3.69205761,1.98335714 C4.00919338,1.86014286 4.48573657,1.71357143 5.36322768,1.67357143 C6.31224136,1.63028571 6.59690259,1.62110714 9.00001786,1.62110714 L9.00001786,1.62110714 Z" id="Fill-1" fill="#0A0B09" mask="url(#mask-2)"></path>
                    </g>
                    <path d="M8.99717857,12.0018929 C7.34082143,12.0018929 5.99810714,10.6591786 5.99810714,9.00285714 C5.99810714,7.3465 7.34082143,6.00378571 8.99717857,6.00378571 C10.6535,6.00378571 11.9962143,7.3465 11.9962143,9.00285714 C11.9962143,10.6591786 10.6535,12.0018929 8.99717857,12.0018929 Z M8.99717857,4.38267857 C6.4455,4.38267857 4.377,6.45117857 4.377,9.00285714 C4.377,11.5545 6.4455,13.623 8.99717857,13.623 C11.5488214,13.623 13.6173214,11.5545 13.6173214,9.00285714 C13.6173214,6.45117857 11.5488214,4.38267857 8.99717857,4.38267857 L8.99717857,4.38267857 Z" id="Fill-4" fill="#0A0B09"></path>
                    <path d="M14.8795357,4.20014286 C14.8795357,4.79642857 14.3961429,5.27978571 13.7998571,5.27978571 C13.2036071,5.27978571 12.7202143,4.79642857 12.7202143,4.20014286 C12.7202143,3.60385714 13.2036071,3.12046429 13.7998571,3.12046429 C14.3961429,3.12046429 14.8795357,3.60385714 14.8795357,4.20014286" id="Fill-5" fill="#0A0B09"></path>
                </g>
            </g>
        </g>
    </g>
</svg>