<svg width="42px" height="42px" viewBox="0 0 42 42" version="1.1" xmlns="http://www.w3.org/2000/svg" xmlns:xlink="http://www.w3.org/1999/xlink">
    <!-- Generator: Sketch 61.2 (89653) - https://sketch.com -->
    <title>LinkedIn-outline</title>
    <desc>Created with Sketch.</desc>
    <g id="Design" stroke="none" stroke-width="1" fill="none" fill-rule="evenodd">
        <g id="Artboard" transform="translate(-41.000000, -227.000000)">
            <g id="LinkedIn-outline" transform="translate(42.000000, 228.000000)">
                <circle id="Oval-Copy-9" stroke="#000000" cx="20" cy="20" r="20">
                </circle>
                <path d="M11.4540216,16.7718018 L14.9623706,16.7718018 L14.9623706,28.9988475 L11.4540216,28.9988475 L11.4540216,16.7718018 Z M13.1187676,15.2424126 L13.0933678,15.2424126 C11.8233772,15.2424126 11,14.3077219 11,13.1240876 C11,11.9162505 11.8477187,11 13.1431091,11 C14.4374412,11 15.233302,11.9139454 15.2587018,13.12063 C15.2587018,14.3042643 14.4374412,15.2424126 13.1187676,15.2424126 L13.1187676,15.2424126 Z M29,29 L25.0217545,29 L25.0217545,22.6715328 C25.0217545,21.0153669 24.3994591,19.8859009 23.0310442,19.8859009 C21.9843603,19.8859009 21.4022813,20.6477142 21.13135,21.3841721 C21.0297507,21.6469458 21.0456256,22.0145985 21.0456256,22.3834038 L21.0456256,29 L17.1044214,29 C17.1044214,29 17.1552211,17.7906262 17.1044214,16.7718018 L21.0456256,16.7718018 L21.0456256,18.6907415 C21.2784572,17.8517096 22.5378645,16.6542451 24.5476246,16.6542451 C27.0410395,16.6542451 29,18.4141375 29,22.2001537 L29,29 L29,29 Z" id="Shape" fill="#000000"></path>
            </g>
        </g>
    </g>
</svg>