<svg version="1.1" id="Layer_1" xmlns="http://www.w3.org/2000/svg" xmlns:xlink="http://www.w3.org/1999/xlink" x="0px" y="0px" viewBox="0 0 42 42" style="enable-background:new 0 0 42 42;" xml:space="preserve">
                                    <style type="text/css">
                                        .st0{fill:none;stroke:#000000;}
                                    </style>
    <desc>Created with Sketch.</desc>
    <g id="Design">
                                        <g id="Artboard" transform="translate(-41.000000, -288.000000)">
                                            <g id="Instagram-outline" transform="translate(42.000000, 289.000000)">
                                                <circle id="Oval-Copy-11" class="st0" cx="20" cy="20" r="20"></circle>
                                                <g>
                                                    <path d="M27.4,15.8c-1,0-1.8-0.3-2.6-0.9c-0.8-0.6-1.4-1.5-1.6-2.6c-0.1-0.3-0.1-0.5-0.1-0.8h-2.7v7.5l0,4.1
                                                        c0,1.1-0.7,2-1.7,2.4c-0.3,0.1-0.6,0.1-0.9,0.1c-0.4,0-0.8-0.1-1.1-0.3c-0.7-0.4-1.2-1.2-1.2-2.1c0-1.4,1.1-2.5,2.5-2.5
                                                        c0.3,0,0.5,0,0.8,0.1v-2v-0.7c-0.3,0-0.5-0.1-0.8-0.1c-1.5,0-2.9,0.6-3.9,1.8c-0.8,0.9-1.2,2-1.3,3.1c-0.1,1.5,0.5,2.9,1.5,4
                                                        c0.2,0.2,0.3,0.3,0.5,0.4c0.9,0.7,2,1.1,3.2,1.1c0.3,0,0.5,0,0.8-0.1c1.1-0.2,2.1-0.7,2.9-1.5c1-1,1.5-2.3,1.5-3.6l0-6.1
                                                        c0.5,0.4,1,0.7,1.5,0.9c0.9,0.4,1.8,0.5,2.7,0.5v-2L27.4,15.8C27.4,15.8,27.4,15.8,27.4,15.8L27.4,15.8z"></path>
                                                </g>
                                            </g>
                                        </g>
                                    </g>
                                    </svg>