<svg width="42px" height="42px" viewBox="0 0 42 42" version="1.1" xmlns="http://www.w3.org/2000/svg" xmlns:xlink="http://www.w3.org/1999/xlink">
    <!-- Generator: Sketch 61.2 (89653) - https://sketch.com -->
    <title>twitter-outline</title>
    <desc>Created with Sketch.</desc>
    <g id="Design" stroke="none" stroke-width="1" fill="none" fill-rule="evenodd">
        <g id="Artboard" transform="translate(-41.000000, -169.000000)">
            <g id="twitter-outline" transform="translate(42.000000, 170.000000)">
                <circle id="Oval-Copy-7" stroke="#000000" cx="20" cy="20" r="20">
                </circle>
                <path d="M26.8795563,14.5109397 C27.6423666,14.0154047 28.2276809,13.2296607 28.5023772,12.2936503 C27.7881669,12.753626 26.9989435,13.0862768 26.1568938,13.266367 C25.4849445,12.4863583 24.5245642,12 23.461701,12 C21.4226096,12 19.770206,13.795167 19.770206,16.0090151 C19.770206,16.3233127 19.8008452,16.6295809 19.8642367,16.9220841 C16.7960909,16.7546117 14.0755415,15.1601822 12.2530375,12.7329787 C11.9350238,13.3271618 11.7533016,14.0154047 11.7533016,14.7495306 C11.7533016,16.1397813 12.405177,17.3671479 13.3961965,18.0875088 C12.7908082,18.0668615 12.2213418,17.8844771 11.7226624,17.5862385 L11.7226624,17.6355626 C11.7226624,19.5787019 12.9947174,21.199514 14.6862124,21.5665769 C14.3755943,21.6606368 14.0501849,21.7076667 13.7120972,21.7076667 C13.4743793,21.7076667 13.241944,21.6835782 13.0179609,21.6365482 C13.4870576,23.2286836 14.8510301,24.38952 16.4675119,24.4204909 C15.2028526,25.4964441 13.6106709,26.13651 11.881141,26.13651 C11.5832013,26.13651 11.2884311,26.1193039 11,26.0814506 C12.6344427,27.2181985 14.5752773,27.8823529 16.6608558,27.8823529 C23.4543053,27.8823529 27.1669308,21.7730498 27.1669308,16.4747262 C27.1669308,16.3003713 27.1648177,16.1271635 27.1574221,15.9562498 C27.879028,15.3907436 28.5066033,14.6841475 29,13.8800503 C28.3375594,14.1989362 27.6254622,14.4145857 26.8795563,14.5109397 Z" id="Shape" fill="#000000"></path>
            </g>
        </g>
    </g>
</svg>